<svg xmlns="http://www.w3.org/2000/svg" viewBox="0 0 252.149 60" enable-background="new 0 0 252.149 60" xml:space="preserve">
<g>
	<path fill="#0A1EFF" d="M0,0v60h59.998V0H0z M30,39.602L18.912,20.398h22.174L30,39.602z"/>
	<g>
		<path fill="#0A1EFF" d="M93.395,35.981l5.383-17.853h5.445l-8.271,23.744h-5.102l-8.238-23.744h5.435L93.395,35.981z"/>
		<path fill="#0A1EFF" d="M128.754,32.166h-9.395v9.707h-4.889V18.129h15.458v3.959h-10.569v6.133h9.395V32.166z"/>
		<path fill="#0A1EFF" d="M149.569,33.178h-3.895v8.695h-4.895V18.129h8.819c2.807,0,4.97,0.625,6.489,1.872
			c1.528,1.252,2.282,3.019,2.282,5.305c0,1.615-0.341,2.967-1.047,4.049c-0.697,1.081-1.76,1.945-3.19,2.584l5.143,9.704v0.23
			h-5.252L149.569,33.178z M145.675,29.217h3.946c1.225,0,2.178-0.312,2.85-0.938c0.677-0.628,1.011-1.487,1.011-2.584
			c0-1.121-0.314-2.002-0.953-2.642c-0.632-0.646-1.611-0.965-2.929-0.965h-3.925V29.217z"/>
		<path fill="#0A1EFF" d="M183.512,36.979h-8.578l-1.631,4.895h-5.199l8.84-23.744h4.533l8.886,23.744h-5.201L183.512,36.979z
			 M176.258,33.013h5.937l-2.988-8.884L176.258,33.013z"/>
		<path fill="#0A1EFF" d="M206.988,18.129l6.099,17.221l6.064-17.221h6.425v23.744h-4.912v-6.492l0.489-11.207l-6.403,17.699h-3.359
			l-6.39-17.678l0.487,11.186v6.492h-4.893V18.129H206.988z"/>
		<path fill="#0A1EFF" d="M252.149,31.58h-9.392v6.361h11.023v3.932h-15.916V18.129h15.883v3.959h-10.991v5.661h9.392V31.58z"/>
	</g>
</g>
</svg>
